#
#
#

mtllib cornell_box.mtl


#
#  Mesh
#
g  Mesh


#
#  Mesh_green
#
usemtl  Mesh_green

v -264.892090 -0.291103 -241.109894
v 287.905823 -1.171953 -239.876572
v 289.154846 -0.282892 -799.074524
v -260.443054 0.592860 -800.300720
v -1.838440 -0.528611 -354.523132
v 48.514252 -0.357081 -512.411011
v 206.408691 -0.683568 -465.058655
v 158.051498 -0.861464 -305.166351
v -183.185577 0.225639 -646.928101
v -25.074463 0.053371 -696.575439
v 23.567963 -0.279088 -536.466675
v -134.540894 -0.105230 -487.819366
v -53.714630 547.734192 -466.767761
v -53.480103 547.901123 -571.767395
v 76.519424 547.693970 -571.477356
v 76.284897 547.527039 -466.477722
v -267.219604 548.512573 -240.242554
v -265.970581 549.401611 -799.440491
v 290.027374 548.515686 -798.200073
v 288.778351 547.626648 -239.002090
v -260.443054 0.592860 -800.300720
v 289.154846 -0.282892 -799.074524
v 290.027374 548.515686 -798.200073
v -265.970581 549.401611 -799.440491
v 289.154846 -0.282892 -799.074524
v 287.905823 -1.171953 -239.876572
v 288.778351 547.626648 -239.002090
v 290.027374 548.515686 -798.200073
v -264.892090 -0.291103 -241.109894
v -260.443054 0.592860 -800.300720
v -265.970581 549.401611 -799.440491
v -267.219604 548.512573 -240.242554
v 158.313828 164.138138 -304.903442
v 206.671021 164.316025 -464.795776
v 48.776581 164.642517 -512.148071
v -1.576111 164.470978 -354.260223
v -1.838440 -0.528611 -354.523132
v -1.576111 164.470978 -354.260223
v 48.776581 164.642517 -512.148071
v 48.514252 -0.357081 -512.411011
v 158.051498 -0.861464 -305.166351
v 158.313828 164.138138 -304.903442
v -1.576111 164.470978 -354.260223
v -1.838440 -0.528611 -354.523132
v 206.408691 -0.683568 -465.058655
v 206.671021 164.316025 -464.795776
v 158.313828 164.138138 -304.903442
v 158.051498 -0.861464 -305.166351
v 48.514252 -0.357081 -512.411011
v 48.776581 164.642517 -512.148071
v 206.671021 164.316025 -464.795776
v 206.408691 -0.683568 -465.058655
v -134.016235 329.893921 -487.293518
v 24.092621 329.720093 -535.940857
v -24.549805 330.052521 -696.049561
v -182.660919 330.224792 -646.402283
v -134.540894 -0.105230 -487.819366
v -134.016235 329.893921 -487.293518
v -182.660919 330.224792 -646.402283
v -183.185577 0.225639 -646.928101
v -183.185577 0.225639 -646.928101
v -182.660919 330.224792 -646.402283
v -24.549805 330.052521 -696.049561
v -25.074463 0.053371 -696.575439
v -25.074463 0.053371 -696.575439
v -24.549805 330.052521 -696.049561
v 24.092621 329.720093 -535.940857
v 23.567963 -0.279088 -536.466675
v 23.567963 -0.279088 -536.466675
v 24.092621 329.720093 -535.940857
v -134.016235 329.893921 -487.293518
v -134.540894 -0.105230 -487.819366
vn -0.999996 0.001593 -0.002231
f 25//1 26//1 27//1 28//1

#
#  Mesh_light
#
usemtl  Mesh_light

v -264.892090 -0.291103 -241.109894
v 287.905823 -1.171953 -239.876572
v 289.154846 -0.282892 -799.074524
v -260.443054 0.592860 -800.300720
v -1.838440 -0.528611 -354.523132
v 48.514252 -0.357081 -512.411011
v 206.408691 -0.683568 -465.058655
v 158.051498 -0.861464 -305.166351
v -183.185577 0.225639 -646.928101
v -25.074463 0.053371 -696.575439
v 23.567963 -0.279088 -536.466675
v -134.540894 -0.105230 -487.819366
v -53.714630 547.734192 -466.767761
v -53.480103 547.901123 -571.767395
v 76.519424 547.693970 -571.477356
v 76.284897 547.527039 -466.477722
v -267.219604 548.512573 -240.242554
v -265.970581 549.401611 -799.440491
v 290.027374 548.515686 -798.200073
v 288.778351 547.626648 -239.002090
v -260.443054 0.592860 -800.300720
v 289.154846 -0.282892 -799.074524
v 290.027374 548.515686 -798.200073
v -265.970581 549.401611 -799.440491
v 289.154846 -0.282892 -799.074524
v 287.905823 -1.171953 -239.876572
v 288.778351 547.626648 -239.002090
v 290.027374 548.515686 -798.200073
v -264.892090 -0.291103 -241.109894
v -260.443054 0.592860 -800.300720
v -265.970581 549.401611 -799.440491
v -267.219604 548.512573 -240.242554
v 158.313828 164.138138 -304.903442
v 206.671021 164.316025 -464.795776
v 48.776581 164.642517 -512.148071
v -1.576111 164.470978 -354.260223
v -1.838440 -0.528611 -354.523132
v -1.576111 164.470978 -354.260223
v 48.776581 164.642517 -512.148071
v 48.514252 -0.357081 -512.411011
v 158.051498 -0.861464 -305.166351
v 158.313828 164.138138 -304.903442
v -1.576111 164.470978 -354.260223
v -1.838440 -0.528611 -354.523132
v 206.408691 -0.683568 -465.058655
v 206.671021 164.316025 -464.795776
v 158.313828 164.138138 -304.903442
v 158.051498 -0.861464 -305.166351
v 48.514252 -0.357081 -512.411011
v 48.776581 164.642517 -512.148071
v 206.671021 164.316025 -464.795776
v 206.408691 -0.683568 -465.058655
v -134.016235 329.893921 -487.293518
v 24.092621 329.720093 -535.940857
v -24.549805 330.052521 -696.049561
v -182.660919 330.224792 -646.402283
v -134.540894 -0.105230 -487.819366
v -134.016235 329.893921 -487.293518
v -182.660919 330.224792 -646.402283
v -183.185577 0.225639 -646.928101
v -183.185577 0.225639 -646.928101
v -182.660919 330.224792 -646.402283
v -24.549805 330.052521 -696.049561
v -25.074463 0.053371 -696.575439
v -25.074463 0.053371 -696.575439
v -24.549805 330.052521 -696.049561
v 24.092621 329.720093 -535.940857
v 23.567963 -0.279088 -536.466675
v 23.567963 -0.279088 -536.466675
v 24.092621 329.720093 -535.940857
v -134.016235 329.893921 -487.293518
v -134.540894 -0.105230 -487.819366
vn -0.001590 -0.999997 -0.001593
f 85//2 86//2 87//2 88//2

#
#  Mesh_red
#
usemtl  Mesh_red

v -264.892090 -0.291103 -241.109894
v 287.905823 -1.171953 -239.876572
v 289.154846 -0.282892 -799.074524
v -260.443054 0.592860 -800.300720
v -1.838440 -0.528611 -354.523132
v 48.514252 -0.357081 -512.411011
v 206.408691 -0.683568 -465.058655
v 158.051498 -0.861464 -305.166351
v -183.185577 0.225639 -646.928101
v -25.074463 0.053371 -696.575439
v 23.567963 -0.279088 -536.466675
v -134.540894 -0.105230 -487.819366
v -53.714630 547.734192 -466.767761
v -53.480103 547.901123 -571.767395
v 76.519424 547.693970 -571.477356
v 76.284897 547.527039 -466.477722
v -267.219604 548.512573 -240.242554
v -265.970581 549.401611 -799.440491
v 290.027374 548.515686 -798.200073
v 288.778351 547.626648 -239.002090
v -260.443054 0.592860 -800.300720
v 289.154846 -0.282892 -799.074524
v 290.027374 548.515686 -798.200073
v -265.970581 549.401611 -799.440491
v 289.154846 -0.282892 -799.074524
v 287.905823 -1.171953 -239.876572
v 288.778351 547.626648 -239.002090
v 290.027374 548.515686 -798.200073
v -264.892090 -0.291103 -241.109894
v -260.443054 0.592860 -800.300720
v -265.970581 549.401611 -799.440491
v -267.219604 548.512573 -240.242554
v 158.313828 164.138138 -304.903442
v 206.671021 164.316025 -464.795776
v 48.776581 164.642517 -512.148071
v -1.576111 164.470978 -354.260223
v -1.838440 -0.528611 -354.523132
v -1.576111 164.470978 -354.260223
v 48.776581 164.642517 -512.148071
v 48.514252 -0.357081 -512.411011
v 158.051498 -0.861464 -305.166351
v 158.313828 164.138138 -304.903442
v -1.576111 164.470978 -354.260223
v -1.838440 -0.528611 -354.523132
v 206.408691 -0.683568 -465.058655
v 206.671021 164.316025 -464.795776
v 158.313828 164.138138 -304.903442
v 158.051498 -0.861464 -305.166351
v 48.514252 -0.357081 -512.411011
v 48.776581 164.642517 -512.148071
v 206.671021 164.316025 -464.795776
v 206.408691 -0.683568 -465.058655
v -134.016235 329.893921 -487.293518
v 24.092621 329.720093 -535.940857
v -24.549805 330.052521 -696.049561
v -182.660919 330.224792 -646.402283
v -134.540894 -0.105230 -487.819366
v -134.016235 329.893921 -487.293518
v -182.660919 330.224792 -646.402283
v -183.185577 0.225639 -646.928101
v -183.185577 0.225639 -646.928101
v -182.660919 330.224792 -646.402283
v -24.549805 330.052521 -696.049561
v -25.074463 0.053371 -696.575439
v -25.074463 0.053371 -696.575439
v -24.549805 330.052521 -696.049561
v 24.092621 329.720093 -535.940857
v 23.567963 -0.279088 -536.466675
v 23.567963 -0.279088 -536.466675
v 24.092621 329.720093 -535.940857
v -134.016235 329.893921 -487.293518
v -134.540894 -0.105230 -487.819366
vn 0.999961 0.007148 0.005106
f 173//3 174//3 175//3 176//3

#
#  Mesh_white
#
usemtl  Mesh_white

v -264.892090 -0.291103 -241.109894
v 287.905823 -1.171953 -239.876572
v 289.154846 -0.282892 -799.074524
v -260.443054 0.592860 -800.300720
v -1.838440 -0.528611 -354.523132
v 48.514252 -0.357081 -512.411011
v 206.408691 -0.683568 -465.058655
v 158.051498 -0.861464 -305.166351
v -183.185577 0.225639 -646.928101
v -25.074463 0.053371 -696.575439
v 23.567963 -0.279088 -536.466675
v -134.540894 -0.105230 -487.819366
v -53.714630 547.734192 -466.767761
v -53.480103 547.901123 -571.767395
v 76.519424 547.693970 -571.477356
v 76.284897 547.527039 -466.477722
v -267.219604 548.512573 -240.242554
v -265.970581 549.401611 -799.440491
v 290.027374 548.515686 -798.200073
v 288.778351 547.626648 -239.002090
v -260.443054 0.592860 -800.300720
v 289.154846 -0.282892 -799.074524
v 290.027374 548.515686 -798.200073
v -265.970581 549.401611 -799.440491
v 289.154846 -0.282892 -799.074524
v 287.905823 -1.171953 -239.876572
v 288.778351 547.626648 -239.002090
v 290.027374 548.515686 -798.200073
v -264.892090 -0.291103 -241.109894
v -260.443054 0.592860 -800.300720
v -265.970581 549.401611 -799.440491
v -267.219604 548.512573 -240.242554
v 158.313828 164.138138 -304.903442
v 206.671021 164.316025 -464.795776
v 48.776581 164.642517 -512.148071
v -1.576111 164.470978 -354.260223
v -1.838440 -0.528611 -354.523132
v -1.576111 164.470978 -354.260223
v 48.776581 164.642517 -512.148071
v 48.514252 -0.357081 -512.411011
v 158.051498 -0.861464 -305.166351
v 158.313828 164.138138 -304.903442
v -1.576111 164.470978 -354.260223
v -1.838440 -0.528611 -354.523132
v 206.408691 -0.683568 -465.058655
v 206.671021 164.316025 -464.795776
v 158.313828 164.138138 -304.903442
v 158.051498 -0.861464 -305.166351
v 48.514252 -0.357081 -512.411011
v 48.776581 164.642517 -512.148071
v 206.671021 164.316025 -464.795776
v 206.408691 -0.683568 -465.058655
v -134.016235 329.893921 -487.293518
v 24.092621 329.720093 -535.940857
v -24.549805 330.052521 -696.049561
v -182.660919 330.224792 -646.402283
v -134.540894 -0.105230 -487.819366
v -134.016235 329.893921 -487.293518
v -182.660919 330.224792 -646.402283
v -183.185577 0.225639 -646.928101
v -183.185577 0.225639 -646.928101
v -182.660919 330.224792 -646.402283
v -24.549805 330.052521 -696.049561
v -25.074463 0.053371 -696.575439
v -25.074463 0.053371 -696.575439
v -24.549805 330.052521 -696.049561
v 24.092621 329.720093 -535.940857
v 23.567963 -0.279088 -536.466675
v 23.567963 -0.279088 -536.466675
v 24.092621 329.720093 -535.940857
v -134.016235 329.893921 -487.293518
v -134.540894 -0.105230 -487.819366
vn 0.001590 0.999997 0.001593
vn -0.001590 -0.999997 -0.001593
vn -0.002234 -0.001590 0.999996
vn -0.952723 0.001999 -0.303835
vn -0.294960 -0.001054 0.955509
vn 0.957181 -0.001983 0.289484
vn 0.287261 0.001070 -0.957852
vn -0.956303 0.001055 0.292375
vn -0.299578 0.001997 -0.954070
vn 0.956816 -0.001058 -0.290691
vn 0.294075 -0.001991 0.955780
f 217//4 218//4 219//4 220//4
f 221//5 222//5 223//5 224//5
f 225//5 226//5 227//5 228//5
f 233//5 234//5 235//5 236//5
f 237//6 238//6 239//6 240//6
f 249//4 250//4 251//4 252//4
f 253//7 254//7 255//7 256//7
f 257//8 258//8 259//8 260//8
f 261//9 262//9 263//9 264//9
f 265//10 266//10 267//10 268//10
f 269//4 270//4 271//4 272//4
f 273//11 274//11 275//11 276//11
f 277//12 278//12 279//12 280//12
f 281//13 282//13 283//13 284//13
f 285//14 286//14 287//14 288//14
