13 0.979592 0.857143
13 0.979592 0.816326
13 0.979592 0.979592
13 0.979592 0.77551
13 0.979592 0.897959
13 0.979592 0.938776
13 0.979592 0.693878
13 0.979592 0.734694
13 0.979592 0.653061
13 0.979592 0.612245
13 0.979592 0.571429
13 0.979592 0.530612
13 0.979592 0.489796
13 0.979592 0.44898
13 0.979592 0.408163
13 0.979592 0.367347
13 0.979592 0.326531
13 0.979592 0.285714
13 0.979592 0.244898
13 0.979592 0.204082
13 0.979592 0.163265
13 0.979592 0.122449
13 0.979592 0.0816327
13 0.979592 0.0408163
13 0.979592 0
13 0.979592 -0.0408163
13 0.979592 -0.0816326
13 0.979592 -0.122449
13 0.979592 -0.163265
13 0.979592 -0.204082
13 0.979592 -0.244898
13 0.979592 -0.285714
13 0.979592 -0.326531
13 0.979592 -0.367347
13 0.979592 -0.408163
13 0.979592 -0.44898
13 0.979592 -0.489796
13 0.979592 -0.530612
13 0.979592 -0.571429
13 0.979592 -0.612245
13 0.979592 -0.653061
13 0.979592 -0.693878
13 0.979592 -0.734694
13 0.979592 -0.77551
13 0.979592 -0.816326
13 0.979592 -0.857143
13 0.979592 -0.897959
13 0.979592 -0.938776
13 0.979592 -0.979592
13 0.979592 -1.02041
13 0.938776 0.979592
13 0.938776 0.938776
13 0.938776 0.897959
13 0.938776 0.857143
13 0.938776 0.816326
13 0.938776 0.77551
13 0.938776 0.734694
13 0.938776 0.693878
13 0.938776 0.653061
13 0.938776 0.612245
13 0.938776 0.571429
13 0.938776 0.530612
13 0.938776 0.489796
13 0.938776 0.44898
13 0.938776 0.408163
13 0.938776 0.367347
13 0.938776 0.326531
13 0.938776 0.285714
13 0.938776 0.244898
13 0.938776 0.204082
13 0.938776 0.163265
13 0.938776 0.122449
13 0.938776 0.0816327
13 0.938776 0.0408163
13 0.938776 0
13 0.938776 -0.0408163
13 0.938776 -0.0816326
13 0.938776 -0.122449
13 0.938776 -0.163265
13 0.938776 -0.204082
13 0.938776 -0.244898
13 0.938776 -0.285714
13 0.938776 -0.326531
13 0.938776 -0.367347
13 0.938776 -0.408163
13 0.938776 -0.44898
13 0.938776 -0.489796
13 0.938776 -0.530612
13 0.938776 -0.571429
13 0.938776 -0.612245
13 0.938776 -0.653061
13 0.938776 -0.693878
13 0.938776 -0.734694
13 0.938776 -0.77551
13 0.938776 -0.816326
13 0.938776 -0.857143
13 0.938776 -0.897959
13 0.938776 -0.938776
13 0.938776 -0.979592
13 0.938776 -1.02041
13 0.897959 0.979592
13 0.897959 0.938776
13 0.897959 0.897959
13 0.897959 0.857143
13 0.897959 0.816326
13 0.897959 0.77551
13 0.897959 0.734694
13 0.897959 0.693878
13 0.897959 0.653061
13 0.897959 0.612245
13 0.897959 0.571429
13 0.897959 0.530612
13 0.897959 0.489796
13 0.897959 0.44898
13 0.897959 0.408163
13 0.897959 0.367347
13 0.897959 0.326531
13 0.897959 0.285714
13 0.897959 0.244898
13 0.897959 0.204082
13 0.897959 0.163265
13 0.897959 0.122449
13 0.897959 0.0816327
13 0.897959 0.0408163
13 0.897959 0
13 0.897959 -0.0408163
13 0.897959 -0.0816326
13 0.897959 -0.122449
13 0.897959 -0.163265
13 0.897959 -0.204082
13 0.897959 -0.244898
13 0.897959 -0.285714
13 0.897959 -0.326531
13 0.897959 -0.367347
13 0.897959 -0.408163
13 0.897959 -0.44898
13 0.897959 -0.489796
13 0.897959 -0.530612
13 0.897959 -0.571429
13 0.897959 -0.612245
13 0.897959 -0.653061
13 0.897959 -0.693878
13 0.897959 -0.734694
13 0.897959 -0.77551
13 0.897959 -0.816326
13 0.897959 -0.857143
13 0.897959 -0.897959
13 0.897959 -0.938776
13 0.897959 -0.979592
13 0.897959 -1.02041
13 0.857143 0.979592
13 0.857143 0.938776
13 0.857143 0.897959
13 0.857143 0.857143
13 0.857143 0.816326
13 0.857143 0.77551
13 0.857143 0.734694
13 0.857143 0.693878
13 0.857143 0.653061
13 0.857143 0.612245
13 0.857143 0.571429
13 0.857143 0.530612
13 0.857143 0.489796
13 0.857143 0.44898
13 0.857143 0.408163
13 0.857143 0.367347
13 0.857143 0.326531
13 0.857143 0.285714
13 0.857143 0.244898
13 0.857143 0.204082
13 0.857143 0.163265
13 0.857143 0.122449
13 0.857143 0.0816327
13 0.857143 0.0408163
13 0.857143 0
13 0.857143 -0.0408163
13 0.857143 -0.0816326
13 0.857143 -0.122449
13 0.857143 -0.163265
13 0.857143 -0.204082
13 0.857143 -0.244898
13 0.857143 -0.285714
13 0.857143 -0.326531
13 0.857143 -0.367347
13 0.857143 -0.408163
13 0.857143 -0.44898
13 0.857143 -0.489796
13 0.857143 -0.530612
13 0.857143 -0.571429
13 0.857143 -0.612245
13 0.857143 -0.653061
13 0.857143 -0.693878
13 0.857143 -0.734694
13 0.857143 -0.77551
13 0.857143 -0.816326
13 0.857143 -0.857143
13 0.857143 -0.897959
13 0.857143 -0.938776
13 0.857143 -0.979592
13 0.857143 -1.02041
13 0.816326 0.979592
13 0.816326 0.938776
13 0.816326 0.897959
13 0.816326 0.857143
13 0.816326 0.816326
13 0.816326 0.77551
13 0.816326 0.734694
13 0.816326 0.693878
13 0.816326 0.653061
13 0.816326 0.612245
13 0.816326 0.571429
13 0.816326 0.530612
13 0.816326 0.489796
13 0.816326 0.44898
13 0.816326 0.408163
13 0.816326 0.367347
13 0.816326 0.326531
13 0.816326 0.285714
13 0.816326 0.244898
13 0.816326 0.204082
13 0.816326 0.163265
13 0.816326 0.122449
13 0.816326 0.0816327
13 0.816326 0.0408163
13 0.816326 0
13 0.816326 -0.0408163
13 0.816326 -0.0816326
13 0.816326 -0.122449
13 0.816326 -0.163265
13 0.816326 -0.204082
13 0.816326 -0.244898
13 0.816326 -0.285714
13 0.816326 -0.326531
13 0.816326 -0.367347
13 0.816326 -0.408163
13 0.816326 -0.44898
13 0.816326 -0.489796
13 0.816326 -0.530612
13 0.816326 -0.571429
13 0.816326 -0.612245
13 0.816326 -0.653061
13 0.816326 -0.693878
13 0.816326 -0.734694
13 0.816326 -0.77551
13 0.816326 -0.816326
13 0.816326 -0.857143
13 0.816326 -0.897959
13 0.816326 -0.938776
13 0.816326 -0.979592
13 0.816326 -1.02041
13 0.77551 0.979592
13 0.77551 0.938776
13 0.77551 0.897959
13 0.77551 0.857143
13 0.77551 0.816326
13 0.77551 0.77551
13 0.77551 0.734694
13 0.77551 0.693878
13 0.77551 0.653061
13 0.77551 0.612245
13 0.77551 0.571429
13 0.77551 0.530612
13 0.77551 0.489796
13 0.77551 0.44898
13 0.77551 0.408163
13 0.77551 0.367347
13 0.77551 0.326531
13 0.77551 0.285714
13 0.77551 0.244898
13 0.77551 0.204082
13 0.77551 0.163265
13 0.77551 0.122449
13 0.77551 0.0816327
13 0.77551 0.0408163
13 0.77551 0
13 0.77551 -0.0408163
13 0.77551 -0.0816326
13 0.77551 -0.122449
13 0.77551 -0.163265
13 0.77551 -0.204082
13 0.77551 -0.244898
13 0.77551 -0.285714
13 0.77551 -0.326531
13 0.77551 -0.367347
13 0.77551 -0.408163
13 0.77551 -0.44898
13 0.77551 -0.489796
13 0.77551 -0.530612
13 0.77551 -0.571429
13 0.77551 -0.612245
13 0.77551 -0.653061
13 0.77551 -0.693878
13 0.77551 -0.734694
13 0.77551 -0.77551
13 0.77551 -0.816326
13 0.77551 -0.857143
13 0.77551 -0.897959
13 0.77551 -0.938776
13 0.77551 -0.979592
13 0.77551 -1.02041
13 0.734694 0.979592
13 0.734694 0.938776
13 0.734694 0.897959
13 0.734694 0.857143
13 0.734694 0.816326
13 0.734694 0.77551
13 0.734694 0.734694
13 0.734694 0.693878
13 0.734694 0.653061
13 0.734694 0.612245
13 0.734694 0.571429
13 0.734694 0.530612
13 0.734694 0.489796
13 0.734694 0.44898
13 0.734694 0.408163
13 0.734694 0.367347
13 0.734694 0.326531
13 0.734694 0.285714
13 0.734694 0.244898
13 0.734694 0.204082
13 0.734694 0.163265
13 0.734694 0.122449
13 0.734694 0.0816327
13 0.734694 0.0408163
13 0.734694 0
13 0.734694 -0.0408163
13 0.734694 -0.0816326
13 0.734694 -0.122449
13 0.734694 -0.163265
13 0.734694 -0.204082
13 0.734694 -0.244898
13 0.734694 -0.285714
13 0.734694 -0.326531
13 0.734694 -0.367347
13 0.734694 -0.408163
13 0.734694 -0.44898
13 0.734694 -0.489796
13 0.734694 -0.530612
13 0.734694 -0.571429
13 0.734694 -0.612245
13 0.734694 -0.653061
13 0.734694 -0.693878
13 0.734694 -0.734694
13 0.734694 -0.77551
13 0.734694 -0.816326
13 0.734694 -0.857143
13 0.734694 -0.897959
13 0.734694 -0.938776
13 0.734694 -0.979592
13 0.734694 -1.02041
13 0.693878 0.979592
13 0.693878 0.938776
13 0.693878 0.897959
13 0.693878 0.857143
13 0.693878 0.816326
13 0.693878 0.77551
13 0.693878 0.734694
13 0.693878 0.693878
13 0.693878 0.653061
13 0.693878 0.612245
13 0.693878 0.571429
13 0.693878 0.530612
13 0.693878 0.489796
13 0.693878 0.44898
13 0.693878 0.408163
13 0.693878 0.367347
13 0.693878 0.326531
13 0.693878 0.285714
13 0.693878 0.244898
13 0.693878 0.204082
13 0.693878 0.163265
13 0.693878 0.122449
13 0.693878 0.0816327
13 0.693878 0.0408163
13 0.693878 0
13 0.693878 -0.0408163
13 0.693878 -0.0816326
13 0.693878 -0.122449
13 0.693878 -0.163265
13 0.693878 -0.204082
13 0.693878 -0.244898
13 0.693878 -0.285714
13 0.693878 -0.326531
13 0.693878 -0.367347
13 0.693878 -0.408163
13 0.693878 -0.44898
13 0.693878 -0.489796
13 0.693878 -0.530612
13 0.693878 -0.571429
13 0.693878 -0.612245
13 0.693878 -0.653061
13 0.693878 -0.693878
13 0.693878 -0.734694
13 0.693878 -0.77551
13 0.693878 -0.816326
13 0.693878 -0.857143
13 0.693878 -0.897959
13 0.693878 -0.938776
13 0.693878 -0.979592
13 0.693878 -1.02041
13 0.653061 0.979592
13 0.653061 0.938776
13 0.653061 0.897959
13 0.653061 0.857143
13 0.653061 0.816326
13 0.653061 0.77551
13 0.653061 0.734694
13 0.653061 0.693878
13 0.653061 0.653061
13 0.653061 0.612245
13 0.653061 0.571429
13 0.653061 0.530612
13 0.653061 0.489796
13 0.653061 0.44898
13 0.653061 0.408163
13 0.653061 0.367347
13 0.653061 0.326531
13 0.653061 0.285714
13 0.653061 0.244898
13 0.653061 0.163265
13 0.653061 0.204082
13 0.653061 0.122449
13 0.653061 0.0816327
13 0.653061 0.0408163
13 0.653061 0
13 0.653061 -0.0408163
13 0.653061 -0.0816326
13 0.653061 -0.122449
13 0.653061 -0.163265
13 0.653061 -0.204082
13 0.653061 -0.244898
13 0.653061 -0.285714
13 0.653061 -0.326531
13 0.653061 -0.367347
13 0.653061 -0.408163
13 0.653061 -0.44898
13 0.653061 -0.489796
13 0.653061 -0.530612
13 0.653061 -0.571429
13 0.653061 -0.612245
13 0.653061 -0.653061
13 0.653061 -0.693878
13 0.653061 -0.734694
13 0.653061 -0.77551
13 0.653061 -0.816326
13 0.653061 -0.857143
13 0.653061 -0.897959
13 0.653061 -0.938776
13 0.653061 -0.979592
13 0.653061 -1.02041
13 0.612245 0.979592
13 0.612245 0.938776
13 0.612245 0.897959
13 0.612245 0.857143
13 0.612245 0.816326
13 0.612245 0.77551
13 0.612245 0.734694
13 0.612245 0.693878
13 0.612245 0.653061
13 0.612245 0.612245
13 0.612245 0.571429
13 0.612245 0.530612
13 0.612245 0.489796
13 0.612245 0.44898
13 0.612245 0.408163
13 0.612245 0.367347
13 0.612245 0.326531
13 0.612245 0.285714
13 0.612245 0.244898
13 0.612245 0.204082
13 0.612245 0.163265
13 0.612245 0.122449
13 0.612245 0.0816327
13 0.612245 0.0408163
13 0.612245 0
13 0.612245 -0.0408163
13 0.612245 -0.0816326
13 0.612245 -0.122449
13 0.612245 -0.163265
13 0.612245 -0.204082
13 0.612245 -0.244898
13 0.612245 -0.285714
13 0.612245 -0.326531
13 0.612245 -0.367347
13 0.612245 -0.408163
13 0.612245 -0.44898
13 0.612245 -0.489796
13 0.612245 -0.530612
13 0.612245 -0.571429
13 0.612245 -0.612245
13 0.612245 -0.653061
13 0.612245 -0.693878
13 0.612245 -0.734694
13 0.612245 -0.77551
13 0.612245 -0.816326
13 0.612245 -0.857143
13 0.612245 -0.897959
13 0.612245 -0.938776
13 0.612245 -0.979592
13 0.612245 -1.02041
13 0.571429 0.979592
13 0.571429 0.938776
13 0.571429 0.897959
13 0.571429 0.857143
13 0.571429 0.816326
13 0.571429 0.77551
13 0.571429 0.734694
13 0.571429 0.693878
13 0.571429 0.653061
13 0.571429 0.612245
13 0.571429 0.571429
13 0.571429 0.530612
13 0.571429 0.489796
13 0.571429 0.44898
13 0.571429 0.408163
13 0.571429 0.367347
13 0.571429 0.326531
13 0.571429 0.285714
13 0.571429 0.244898
13 0.571429 0.204082
13 0.571429 0.163265
13 0.571429 0.122449
13 0.571429 0.0816327
13 0.571429 0.0408163
13 0.571429 0
13 0.571429 -0.0408163
13 0.571429 -0.0816326
13 0.571429 -0.122449
13 0.571429 -0.163265
13 0.571429 -0.204082
13 0.571429 -0.244898
13 0.571429 -0.285714
13 0.571429 -0.326531
13 0.571429 -0.367347
13 0.571429 -0.408163
13 0.571429 -0.44898
13 0.571429 -0.489796
13 0.571429 -0.530612
13 0.571429 -0.571429
13 0.571429 -0.612245
13 0.571429 -0.653061
13 0.571429 -0.693878
13 0.571429 -0.734694
13 0.571429 -0.77551
13 0.571429 -0.816326
13 0.571429 -0.857143
13 0.571429 -0.897959
13 0.571429 -0.938776
13 0.571429 -0.979592
13 0.571429 -1.02041
13 0.530612 0.979592
13 0.530612 0.938776
13 0.530612 0.897959
13 0.530612 0.857143
13 0.530612 0.816326
13 0.530612 0.77551
13 0.530612 0.734694
13 0.530612 0.693878
13 0.530612 0.653061
13 0.530612 0.612245
13 0.530612 0.571429
13 0.530612 0.530612
13 0.530612 0.489796
13 0.530612 0.44898
13 0.530612 0.408163
13 0.530612 0.367347
13 0.530612 0.326531
13 0.530612 0.285714
13 0.530612 0.244898
13 0.530612 0.204082
13 0.530612 0.163265
13 0.530612 0.122449
13 0.530612 0.0816327
13 0.530612 0.0408163
13 0.530612 0
13 0.530612 -0.0408163
13 0.530612 -0.0816326
13 0.530612 -0.122449
13 0.530612 -0.163265
13 0.530612 -0.204082
13 0.530612 -0.244898
13 0.530612 -0.285714
13 0.530612 -0.326531
13 0.530612 -0.367347
13 0.530612 -0.408163
13 0.530612 -0.44898
13 0.530612 -0.489796
13 0.530612 -0.530612
13 0.530612 -0.571429
13 0.530612 -0.612245
13 0.530612 -0.653061
13 0.530612 -0.693878
13 0.530612 -0.734694
13 0.530612 -0.77551
13 0.530612 -0.816326
13 0.530612 -0.857143
13 0.530612 -0.897959
13 0.530612 -0.938776
13 0.530612 -0.979592
13 0.530612 -1.02041
13 0.489796 0.979592
13 0.489796 0.938776
13 0.489796 0.897959
13 0.489796 0.857143
13 0.489796 0.816326
13 0.489796 0.77551
13 0.489796 0.734694
13 0.489796 0.693878
13 0.489796 0.653061
13 0.489796 0.612245
13 0.489796 0.571429
13 0.489796 0.530612
13 0.489796 0.489796
13 0.489796 0.44898
13 0.489796 0.408163
13 0.489796 0.367347
13 0.489796 0.326531
13 0.489796 0.285714
13 0.489796 0.244898
13 0.489796 0.204082
13 0.489796 0.163265
13 0.489796 0.122449
13 0.489796 0.0816327
13 0.489796 0.0408163
13 0.489796 0
13 0.489796 -0.0408163
13 0.489796 -0.0816326
13 0.489796 -0.122449
13 0.489796 -0.163265
13 0.489796 -0.204082
13 0.489796 -0.244898
13 0.489796 -0.285714
13 0.489796 -0.326531
13 0.489796 -0.367347
13 0.489796 -0.408163
13 0.489796 -0.44898
13 0.489796 -0.489796
13 0.489796 -0.530612
13 0.489796 -0.571429
13 0.489796 -0.612245
13 0.489796 -0.653061
13 0.489796 -0.693878
13 0.489796 -0.734694
13 0.489796 -0.77551
13 0.489796 -0.816326
13 0.489796 -0.857143
13 0.489796 -0.897959
13 0.489796 -0.938776
13 0.489796 -0.979592
13 0.489796 -1.02041
13 0.44898 0.979592
13 0.44898 0.938776
13 0.44898 0.897959
13 0.44898 0.857143
13 0.44898 0.816326
13 0.44898 0.77551
13 0.44898 0.734694
13 0.44898 0.693878
13 0.44898 0.653061
13 0.44898 0.612245
13 0.44898 0.571429
13 0.44898 0.530612
13 0.44898 0.489796
13 0.44898 0.44898
13 0.44898 0.408163
13 0.44898 0.367347
13 0.44898 0.326531
13 0.44898 0.285714
13 0.44898 0.244898
13 0.44898 0.204082
13 0.44898 0.163265
13 0.44898 0.122449
13 0.44898 0.0816327
13 0.44898 0.0408163
13 0.44898 0
13 0.44898 -0.0408163
13 0.44898 -0.0816326
13 0.44898 -0.122449
13 0.44898 -0.163265
13 0.44898 -0.204082
13 0.44898 -0.244898
13 0.44898 -0.285714
13 0.44898 -0.326531
13 0.44898 -0.367347
13 0.44898 -0.408163
13 0.44898 -0.44898
13 0.44898 -0.489796
13 0.44898 -0.530612
13 0.44898 -0.571429
13 0.44898 -0.612245
13 0.44898 -0.653061
13 0.44898 -0.693878
13 0.44898 -0.734694
13 0.44898 -0.77551
13 0.44898 -0.816326
13 0.44898 -0.857143
13 0.44898 -0.897959
13 0.44898 -0.938776
13 0.44898 -0.979592
13 0.44898 -1.02041
13 0.408163 0.979592
13 0.408163 0.938776
13 0.408163 0.897959
13 0.408163 0.857143
13 0.408163 0.816326
13 0.408163 0.77551
13 0.408163 0.734694
13 0.408163 0.693878
13 0.408163 0.653061
13 0.408163 0.612245
13 0.408163 0.571429
13 0.408163 0.530612
13 0.408163 0.489796
13 0.408163 0.44898
13 0.408163 0.408163
13 0.408163 0.367347
13 0.408163 0.326531
13 0.408163 0.285714
13 0.408163 0.244898
13 0.408163 0.204082
13 0.408163 0.163265
13 0.408163 0.122449
13 0.408163 0.0816327
13 0.408163 0.0408163
13 0.408163 0
13 0.408163 -0.0408163
13 0.408163 -0.0816326
13 0.408163 -0.122449
13 0.408163 -0.163265
13 0.408163 -0.204082
13 0.408163 -0.244898
13 0.408163 -0.285714
13 0.408163 -0.326531
13 0.408163 -0.367347
13 0.408163 -0.408163
13 0.408163 -0.44898
13 0.408163 -0.489796
13 0.408163 -0.530612
13 0.408163 -0.571429
13 0.408163 -0.612245
13 0.408163 -0.653061
13 0.408163 -0.693878
13 0.408163 -0.734694
13 0.408163 -0.77551
13 0.408163 -0.816326
13 0.408163 -0.857143
13 0.408163 -0.897959
13 0.408163 -0.938776
13 0.408163 -0.979592
13 0.408163 -1.02041
13 0.367347 0.979592
13 0.367347 0.938776
13 0.367347 0.897959
13 0.367347 0.857143
13 0.367347 0.816326
13 0.367347 0.77551
13 0.367347 0.734694
13 0.367347 0.693878
13 0.367347 0.653061
13 0.367347 0.571429
13 0.367347 0.612245
13 0.367347 0.530612
13 0.367347 0.489796
13 0.367347 0.44898
13 0.367347 0.408163
13 0.367347 0.367347
13 0.367347 0.326531
13 0.367347 0.285714
13 0.367347 0.244898
13 0.367347 0.204082
13 0.367347 0.163265
13 0.367347 0.122449
13 0.367347 0.0816327
13 0.367347 0.0408163
13 0.367347 0
13 0.367347 -0.0408163
13 0.367347 -0.0816326
13 0.367347 -0.122449
13 0.367347 -0.163265
13 0.367347 -0.204082
13 0.367347 -0.244898
13 0.367347 -0.285714
13 0.367347 -0.326531
13 0.367347 -0.367347
13 0.367347 -0.408163
13 0.367347 -0.44898
13 0.367347 -0.489796
13 0.367347 -0.530612
13 0.367347 -0.571429
13 0.367347 -0.612245
13 0.367347 -0.653061
13 0.367347 -0.693878
13 0.367347 -0.734694
13 0.367347 -0.77551
13 0.367347 -0.816326
13 0.367347 -0.857143
13 0.367347 -0.897959
13 0.367347 -0.938776
13 0.367347 -0.979592
13 0.367347 -1.02041
13 0.326531 0.979592
13 0.326531 0.938776
13 0.326531 0.897959
13 0.326531 0.857143
13 0.326531 0.816326
13 0.326531 0.77551
13 0.326531 0.734694
13 0.326531 0.693878
13 0.326531 0.653061
13 0.326531 0.612245
13 0.326531 0.571429
13 0.326531 0.530612
13 0.326531 0.489796
13 0.326531 0.44898
13 0.326531 0.408163
13 0.326531 0.367347
13 0.326531 0.326531
13 0.326531 0.285714
13 0.326531 0.244898
13 0.326531 0.204082
13 0.326531 0.163265
13 0.326531 0.122449
13 0.326531 0.0816327
13 0.326531 0.0408163
13 0.326531 0
13 0.326531 -0.0408163
13 0.326531 -0.0816326
13 0.326531 -0.122449
13 0.326531 -0.163265
13 0.326531 -0.204082
13 0.326531 -0.244898
13 0.326531 -0.285714
13 0.326531 -0.326531
13 0.326531 -0.367347
13 0.326531 -0.408163
13 0.326531 -0.44898
13 0.326531 -0.489796
13 0.326531 -0.530612
13 0.326531 -0.571429
13 0.326531 -0.612245
13 0.326531 -0.653061
13 0.326531 -0.693878
13 0.326531 -0.734694
13 0.326531 -0.77551
13 0.326531 -0.816326
13 0.326531 -0.857143
13 0.326531 -0.897959
13 0.326531 -0.938776
13 0.326531 -0.979592
13 0.326531 -1.02041
13 0.285714 0.979592
13 0.285714 0.938776
13 0.285714 0.897959
13 0.285714 0.857143
13 0.285714 0.816326
13 0.285714 0.77551
13 0.285714 0.734694
13 0.285714 0.693878
13 0.285714 0.653061
13 0.285714 0.612245
13 0.285714 0.571429
13 0.285714 0.530612
13 0.285714 0.489796
13 0.285714 0.44898
13 0.285714 0.408163
13 0.285714 0.367347
13 0.285714 0.326531
13 0.285714 0.285714
13 0.285714 0.244898
13 0.285714 0.204082
13 0.285714 0.163265
13 0.285714 0.122449
13 0.285714 0.0816327
13 0.285714 0.0408163
13 0.285714 0
13 0.285714 -0.0408163
13 0.285714 -0.0816326
13 0.285714 -0.122449
13 0.285714 -0.163265
13 0.285714 -0.204082
13 0.285714 -0.244898
13 0.285714 -0.285714
13 0.285714 -0.326531
13 0.285714 -0.367347
13 0.285714 -0.408163
13 0.285714 -0.44898
13 0.285714 -0.489796
13 0.285714 -0.530612
13 0.285714 -0.571429
13 0.285714 -0.612245
13 0.285714 -0.653061
13 0.285714 -0.693878
13 0.285714 -0.734694
13 0.285714 -0.77551
13 0.285714 -0.816326
13 0.285714 -0.857143
13 0.285714 -0.897959
13 0.285714 -0.938776
13 0.285714 -0.979592
13 0.285714 -1.02041
13 0.244898 0.979592
13 0.244898 0.938776
13 0.244898 0.897959
13 0.244898 0.857143
13 0.244898 0.816326
13 0.244898 0.77551
13 0.244898 0.734694
13 0.244898 0.693878
13 0.244898 0.653061
13 0.244898 0.612245
13 0.244898 0.571429
13 0.244898 0.530612
13 0.244898 0.489796
13 0.244898 0.44898
13 0.244898 0.408163
13 0.244898 0.367347
13 0.244898 0.326531
13 0.244898 0.285714
13 0.244898 0.244898
13 0.244898 0.204082
13 0.244898 0.163265
13 0.244898 0.122449
13 0.244898 0.0816327
13 0.244898 0.0408163
13 0.244898 0
13 0.244898 -0.0408163
13 0.244898 -0.0816326
13 0.244898 -0.122449
13 0.244898 -0.163265
13 0.244898 -0.204082
13 0.244898 -0.244898
13 0.244898 -0.285714
13 0.244898 -0.326531
13 0.244898 -0.367347
13 0.244898 -0.408163
13 0.244898 -0.44898
13 0.244898 -0.489796
13 0.244898 -0.530612
13 0.244898 -0.571429
13 0.244898 -0.612245
13 0.244898 -0.653061
13 0.244898 -0.693878
13 0.244898 -0.734694
13 0.244898 -0.77551
13 0.244898 -0.816326
13 0.244898 -0.857143
13 0.244898 -0.897959
13 0.244898 -0.938776
13 0.244898 -0.979592
13 0.244898 -1.02041
13 0.204082 0.979592
13 0.204082 0.938776
13 0.204082 0.897959
13 0.204082 0.857143
13 0.204082 0.816326
13 0.204082 0.77551
13 0.204082 0.734694
13 0.204082 0.693878
13 0.204082 0.653061
13 0.204082 0.612245
13 0.204082 0.571429
13 0.204082 0.530612
13 0.204082 0.489796
13 0.204082 0.44898
13 0.204082 0.408163
13 0.204082 0.367347
13 0.204082 0.326531
13 0.204082 0.285714
13 0.204082 0.244898
13 0.204082 0.204082
13 0.204082 0.163265
13 0.204082 0.122449
13 0.204082 0.0816327
13 0.204082 0.0408163
13 0.204082 0
13 0.204082 -0.0408163
13 0.204082 -0.0816326
13 0.204082 -0.122449
13 0.204082 -0.163265
13 0.204082 -0.204082
13 0.204082 -0.244898
13 0.204082 -0.285714
13 0.204082 -0.326531
13 0.204082 -0.367347
13 0.204082 -0.408163
13 0.204082 -0.44898
13 0.204082 -0.489796
13 0.204082 -0.530612
13 0.204082 -0.571429
13 0.204082 -0.612245
13 0.204082 -0.653061
13 0.204082 -0.693878
13 0.204082 -0.734694
13 0.204082 -0.77551
13 0.204082 -0.816326
13 0.204082 -0.857143
13 0.204082 -0.897959
13 0.204082 -0.938776
13 0.204082 -0.979592
13 0.204082 -1.02041
13 0.163265 0.979592
13 0.163265 0.938776
13 0.163265 0.897959
13 0.163265 0.857143
13 0.163265 0.816326
13 0.163265 0.77551
13 0.163265 0.734694
13 0.163265 0.693878
13 0.163265 0.653061
13 0.163265 0.612245
13 0.163265 0.571429
13 0.163265 0.530612
13 0.163265 0.489796
13 0.163265 0.44898
13 0.163265 0.408163
13 0.163265 0.367347
13 0.163265 0.326531
13 0.163265 0.285714
13 0.163265 0.244898
13 0.163265 0.204082
13 0.163265 0.163265
13 0.163265 0.122449
13 0.163265 0.0816327
13 0.163265 0.0408163
13 0.163265 0
13 0.163265 -0.0408163
13 0.163265 -0.0816326
13 0.163265 -0.122449
13 0.163265 -0.163265
13 0.163265 -0.204082
13 0.163265 -0.244898
13 0.163265 -0.285714
13 0.163265 -0.326531
13 0.163265 -0.367347
13 0.163265 -0.408163
13 0.163265 -0.44898
13 0.163265 -0.489796
13 0.163265 -0.530612
13 0.163265 -0.571429
13 0.163265 -0.612245
13 0.163265 -0.653061
13 0.163265 -0.693878
13 0.163265 -0.734694
13 0.163265 -0.77551
13 0.163265 -0.816326
13 0.163265 -0.857143
13 0.163265 -0.897959
13 0.163265 -0.938776
13 0.163265 -0.979592
13 0.163265 -1.02041
13 0.122449 0.979592
13 0.122449 0.938776
13 0.122449 0.897959
13 0.122449 0.857143
13 0.122449 0.816326
13 0.122449 0.77551
13 0.122449 0.734694
13 0.122449 0.693878
13 0.122449 0.653061
13 0.122449 0.612245
13 0.122449 0.571429
13 0.122449 0.530612
13 0.122449 0.489796
13 0.122449 0.44898
13 0.122449 0.408163
13 0.122449 0.367347
13 0.122449 0.326531
13 0.122449 0.285714
13 0.122449 0.244898
13 0.122449 0.204082
13 0.122449 0.163265
13 0.122449 0.122449
13 0.122449 0.0816327
13 0.122449 0.0408163
13 0.122449 0
13 0.122449 -0.0408163
13 0.122449 -0.0816326
13 0.122449 -0.122449
13 0.122449 -0.163265
13 0.122449 -0.204082
13 0.122449 -0.244898
13 0.122449 -0.285714
13 0.122449 -0.326531
13 0.122449 -0.367347
13 0.122449 -0.408163
13 0.122449 -0.44898
13 0.122449 -0.489796
13 0.122449 -0.530612
13 0.122449 -0.571429
13 0.122449 -0.612245
13 0.122449 -0.653061
13 0.122449 -0.693878
13 0.122449 -0.734694
13 0.122449 -0.77551
13 0.122449 -0.816326
13 0.122449 -0.857143
13 0.122449 -0.897959
13 0.122449 -0.938776
13 0.122449 -0.979592
13 0.122449 -1.02041
13 0.0816326 0.979592
13 0.0816326 0.938776
13 0.0816326 0.897959
13 0.0816326 0.857143
13 0.0816326 0.816326
13 0.0816326 0.77551
13 0.0816326 0.734694
13 0.0816326 0.693878
13 0.0816326 0.653061
13 0.0816326 0.612245
13 0.0816326 0.571429
13 0.0816326 0.530612
13 0.0816326 0.489796
13 0.0816326 0.44898
13 0.0816326 0.408163
13 0.0816326 0.367347
13 0.0816326 0.326531
13 0.0816326 0.285714
13 0.0816326 0.244898
13 0.0816326 0.204082
13 0.0816326 0.163265
13 0.0816326 0.122449
13 0.0816326 0.0816327
13 0.0816326 0.0408163
13 0.0816326 0
13 0.0816326 -0.0408163
13 0.0816326 -0.0816326
13 0.0816326 -0.122449
13 0.0816326 -0.163265
13 0.0816326 -0.204082
13 0.0816326 -0.244898
13 0.0816326 -0.285714
13 0.0816326 -0.326531
13 0.0816326 -0.367347
13 0.0816326 -0.408163
13 0.0816326 -0.44898
13 0.0816326 -0.489796
13 0.0816326 -0.530612
13 0.0816326 -0.571429
13 0.0816326 -0.612245
13 0.0816326 -0.653061
13 0.0816326 -0.693878
13 0.0816326 -0.734694
13 0.0816326 -0.77551
13 0.0816326 -0.816326
13 0.0816326 -0.857143
13 0.0816326 -0.897959
13 0.0816326 -0.938776
13 0.0816326 -0.979592
13 0.0816326 -1.02041
13 0.0408163 0.979592
13 0.0408163 0.938776
13 0.0408163 0.897959
13 0.0408163 0.857143
13 0.0408163 0.816326
13 0.0408163 0.77551
13 0.0408163 0.734694
13 0.0408163 0.693878
13 0.0408163 0.653061
13 0.0408163 0.612245
13 0.0408163 0.571429
13 0.0408163 0.530612
13 0.0408163 0.489796
13 0.0408163 0.44898
13 0.0408163 0.408163
13 0.0408163 0.367347
13 0.0408163 0.326531
13 0.0408163 0.285714
13 0.0408163 0.244898
13 0.0408163 0.204082
13 0.0408163 0.163265
13 0.0408163 0.122449
13 0.0408163 0.0816327
13 0.0408163 0.0408163
13 0.0408163 0
13 0.0408163 -0.0408163
13 0.0408163 -0.0816326
13 0.0408163 -0.122449
13 0.0408163 -0.163265
13 0.0408163 -0.204082
13 0.0408163 -0.244898
13 0.0408163 -0.285714
13 0.0408163 -0.326531
13 0.0408163 -0.367347
13 0.0408163 -0.408163
13 0.0408163 -0.44898
13 0.0408163 -0.489796
13 0.0408163 -0.530612
13 0.0408163 -0.571429
13 0.0408163 -0.612245
13 0.0408163 -0.653061
13 0.0408163 -0.693878
13 0.0408163 -0.734694
13 0.0408163 -0.77551
13 0.0408163 -0.816326
13 0.0408163 -0.857143
13 0.0408163 -0.897959
13 0.0408163 -0.938776
13 0.0408163 -0.979592
13 0.0408163 -1.02041
13 0 0.979592
13 0 0.938776
13 0 0.897959
13 0 0.857143
13 0 0.816326
13 0 0.77551
13 0 0.734694
13 0 0.693878
13 0 0.653061
13 0 0.612245
13 0 0.571429
13 0 0.530612
13 0 0.489796
13 0 0.44898
13 0 0.408163
13 0 0.367347
13 0 0.326531
13 0 0.285714
13 0 0.244898
13 0 0.204082
13 0 0.163265
13 0 0.122449
13 0 0.0816327
13 0 0.0408163
13 0 0
13 0 -0.0408163
13 0 -0.0816326
13 0 -0.122449
13 0 -0.163265
13 0 -0.204082
13 0 -0.244898
13 0 -0.285714
13 0 -0.326531
13 0 -0.367347
13 0 -0.408163
13 0 -0.44898
13 0 -0.489796
13 0 -0.530612
13 0 -0.571429
13 0 -0.612245
13 0 -0.653061
13 0 -0.693878
13 0 -0.734694
13 0 -0.77551
13 0 -0.816326
13 0 -0.857143
13 0 -0.897959
13 0 -0.938776
13 0 -0.979592
13 0 -1.02041
13 -0.0408163 0.979592
13 -0.0408163 0.938776
13 -0.0408163 0.897959
13 -0.0408163 0.857143
13 -0.0408163 0.816326
13 -0.0408163 0.77551
13 -0.0408163 0.734694
13 -0.0408163 0.693878
13 -0.0408163 0.653061
13 -0.0408163 0.612245
13 -0.0408163 0.571429
13 -0.0408163 0.530612
13 -0.0408163 0.489796
13 -0.0408163 0.44898
13 -0.0408163 0.408163
13 -0.0408163 0.367347
13 -0.0408163 0.326531
13 -0.0408163 0.285714
13 -0.0408163 0.244898
13 -0.0408163 0.204082
13 -0.0408163 0.163265
13 -0.0408163 0.122449
13 -0.0408163 0.0816327
13 -0.0408163 0.0408163
13 -0.0408163 0
13 -0.0408163 -0.0408163
13 -0.0408163 -0.0816326
13 -0.0408163 -0.122449
13 -0.0408163 -0.163265
13 -0.0408163 -0.204082
13 -0.0408163 -0.244898
13 -0.0408163 -0.285714
13 -0.0408163 -0.326531
13 -0.0408163 -0.367347
13 -0.0408163 -0.408163
13 -0.0408163 -0.44898
13 -0.0408163 -0.489796
13 -0.0408163 -0.530612
13 -0.0408163 -0.571429
13 -0.0408163 -0.612245
13 -0.0408163 -0.693878
13 -0.0408163 -0.653061
13 -0.0408163 -0.734694
13 -0.0408163 -0.77551
13 -0.0408163 -0.816326
13 -0.0408163 -0.857143
13 -0.0408163 -0.897959
13 -0.0408163 -0.938776
13 -0.0408163 -0.979592
13 -0.0408163 -1.02041
13 -0.0816326 0.979592
13 -0.0816326 0.938776
13 -0.0816326 0.897959
13 -0.0816326 0.857143
13 -0.0816326 0.816326
13 -0.0816326 0.77551
13 -0.0816326 0.734694
13 -0.0816326 0.693878
13 -0.0816326 0.653061
13 -0.0816326 0.612245
13 -0.0816326 0.571429
13 -0.0816326 0.530612
13 -0.0816326 0.489796
13 -0.0816326 0.44898
13 -0.0816326 0.408163
13 -0.0816326 0.367347
13 -0.0816326 0.326531
13 -0.0816326 0.285714
13 -0.0816326 0.244898
13 -0.0816326 0.204082
13 -0.0816326 0.163265
13 -0.0816326 0.122449
13 -0.0816326 0.0816327
13 -0.0816326 0.0408163
13 -0.0816326 0
13 -0.0816326 -0.0408163
13 -0.0816326 -0.0816326
13 -0.0816326 -0.122449
13 -0.0816326 -0.163265
13 -0.0816326 -0.204082
13 -0.0816326 -0.244898
13 -0.0816326 -0.285714
13 -0.0816326 -0.326531
13 -0.0816326 -0.367347
13 -0.0816326 -0.408163
13 -0.0816326 -0.44898
13 -0.0816326 -0.489796
13 -0.0816326 -0.530612
13 -0.0816326 -0.571429
13 -0.0816326 -0.612245
13 -0.0816326 -0.653061
13 -0.0816326 -0.693878
13 -0.0816326 -0.734694
13 -0.0816326 -0.77551
13 -0.0816326 -0.816326
13 -0.0816326 -0.857143
13 -0.0816326 -0.897959
13 -0.0816326 -0.938776
13 -0.0816326 -0.979592
13 -0.0816326 -1.02041
13 -0.122449 0.979592
13 -0.122449 0.938776
13 -0.122449 0.897959
13 -0.122449 0.857143
13 -0.122449 0.816326
13 -0.122449 0.77551
13 -0.122449 0.734694
13 -0.122449 0.693878
13 -0.122449 0.653061
13 -0.122449 0.612245
13 -0.122449 0.571429
13 -0.122449 0.530612
13 -0.122449 0.489796
13 -0.122449 0.44898
13 -0.122449 0.408163
13 -0.122449 0.367347
13 -0.122449 0.326531
13 -0.122449 0.285714
13 -0.122449 0.244898
13 -0.122449 0.204082
13 -0.122449 0.163265
13 -0.122449 0.122449
13 -0.122449 0.0816327
13 -0.122449 0.0408163
13 -0.122449 0
13 -0.122449 -0.0408163
13 -0.122449 -0.0816326
13 -0.122449 -0.122449
13 -0.122449 -0.163265
13 -0.122449 -0.204082
13 -0.122449 -0.244898
13 -0.122449 -0.285714
13 -0.122449 -0.326531
13 -0.122449 -0.367347
13 -0.122449 -0.408163
13 -0.122449 -0.44898
13 -0.122449 -0.489796
13 -0.122449 -0.530612
13 -0.122449 -0.571429
13 -0.122449 -0.612245
13 -0.122449 -0.653061
13 -0.122449 -0.693878
13 -0.122449 -0.734694
13 -0.122449 -0.77551
13 -0.122449 -0.816326
13 -0.122449 -0.857143
13 -0.122449 -0.897959
13 -0.122449 -0.938776
13 -0.122449 -0.979592
13 -0.122449 -1.02041
13 -0.163265 0.979592
13 -0.163265 0.938776
13 -0.163265 0.897959
13 -0.163265 0.857143
13 -0.163265 0.816326
13 -0.163265 0.77551
13 -0.163265 0.734694
13 -0.163265 0.693878
13 -0.163265 0.653061
13 -0.163265 0.612245
13 -0.163265 0.571429
13 -0.163265 0.530612
13 -0.163265 0.489796
13 -0.163265 0.44898
13 -0.163265 0.408163
13 -0.163265 0.367347
13 -0.163265 0.326531
13 -0.163265 0.285714
13 -0.163265 0.244898
13 -0.163265 0.204082
13 -0.163265 0.163265
13 -0.163265 0.122449
13 -0.163265 0.0816327
13 -0.163265 0.0408163
13 -0.163265 0
13 -0.163265 -0.0408163
13 -0.163265 -0.0816326
13 -0.163265 -0.122449
13 -0.163265 -0.163265
13 -0.163265 -0.204082
13 -0.163265 -0.244898
13 -0.163265 -0.285714
13 -0.163265 -0.326531
13 -0.163265 -0.367347
13 -0.163265 -0.408163
13 -0.163265 -0.44898
13 -0.163265 -0.489796
13 -0.163265 -0.530612
13 -0.163265 -0.571429
13 -0.163265 -0.612245
13 -0.163265 -0.653061
13 -0.163265 -0.693878
13 -0.163265 -0.734694
13 -0.163265 -0.77551
13 -0.163265 -0.816326
13 -0.163265 -0.857143
13 -0.163265 -0.897959
13 -0.163265 -0.938776
13 -0.163265 -0.979592
13 -0.163265 -1.02041
13 -0.204082 0.979592
13 -0.204082 0.938776
13 -0.204082 0.897959
13 -0.204082 0.816326
13 -0.204082 0.857143
13 -0.204082 0.77551
13 -0.204082 0.734694
13 -0.204082 0.693878
13 -0.204082 0.653061
13 -0.204082 0.612245
13 -0.204082 0.571429
13 -0.204082 0.530612
13 -0.204082 0.489796
13 -0.204082 0.44898
13 -0.204082 0.408163
13 -0.204082 0.367347
13 -0.204082 0.326531
13 -0.204082 0.285714
13 -0.204082 0.244898
13 -0.204082 0.204082
13 -0.204082 0.163265
13 -0.204082 0.122449
13 -0.204082 0.0816327
13 -0.204082 0.0408163
13 -0.204082 0
13 -0.204082 -0.0408163
13 -0.204082 -0.0816326
13 -0.204082 -0.122449
13 -0.204082 -0.163265
13 -0.204082 -0.204082
13 -0.204082 -0.244898
13 -0.204082 -0.285714
13 -0.204082 -0.326531
13 -0.204082 -0.367347
13 -0.204082 -0.408163
13 -0.204082 -0.44898
13 -0.204082 -0.489796
13 -0.204082 -0.530612
13 -0.204082 -0.571429
13 -0.204082 -0.612245
13 -0.204082 -0.653061
13 -0.204082 -0.693878
13 -0.204082 -0.734694
13 -0.204082 -0.77551
13 -0.204082 -0.816326
13 -0.204082 -0.857143
13 -0.204082 -0.897959
13 -0.204082 -0.938776
13 -0.204082 -0.979592
13 -0.204082 -1.02041
13 -0.244898 0.979592
13 -0.244898 0.938776
13 -0.244898 0.897959
13 -0.244898 0.857143
13 -0.244898 0.816326
13 -0.244898 0.77551
13 -0.244898 0.734694
13 -0.244898 0.693878
13 -0.244898 0.653061
13 -0.244898 0.612245
13 -0.244898 0.571429
13 -0.244898 0.530612
13 -0.244898 0.489796
13 -0.244898 0.44898
13 -0.244898 0.408163
13 -0.244898 0.367347
13 -0.244898 0.326531
13 -0.244898 0.285714
13 -0.244898 0.244898
13 -0.244898 0.204082
13 -0.244898 0.163265
13 -0.244898 0.122449
13 -0.244898 0.0816327
13 -0.244898 0.0408163
13 -0.244898 0
13 -0.244898 -0.0408163
13 -0.244898 -0.0816326
13 -0.244898 -0.122449
13 -0.244898 -0.163265
13 -0.244898 -0.204082
13 -0.244898 -0.244898
13 -0.244898 -0.285714
13 -0.244898 -0.326531
13 -0.244898 -0.367347
13 -0.244898 -0.408163
13 -0.244898 -0.44898
13 -0.244898 -0.489796
13 -0.244898 -0.530612
13 -0.244898 -0.571429
13 -0.244898 -0.612245
13 -0.244898 -0.653061
13 -0.244898 -0.693878
13 -0.244898 -0.734694
13 -0.244898 -0.77551
13 -0.244898 -0.816326
13 -0.244898 -0.857143
13 -0.244898 -0.897959
13 -0.244898 -0.938776
13 -0.244898 -0.979592
13 -0.244898 -1.02041
13 -0.285714 0.979592
13 -0.285714 0.938776
13 -0.285714 0.897959
13 -0.285714 0.857143
13 -0.285714 0.816326
13 -0.285714 0.77551
13 -0.285714 0.734694
13 -0.285714 0.693878
13 -0.285714 0.653061
13 -0.285714 0.612245
13 -0.285714 0.571429
13 -0.285714 0.530612
13 -0.285714 0.489796
13 -0.285714 0.44898
13 -0.285714 0.408163
13 -0.285714 0.367347
13 -0.285714 0.326531
13 -0.285714 0.285714
13 -0.285714 0.244898
13 -0.285714 0.204082
13 -0.285714 0.163265
13 -0.285714 0.122449
13 -0.285714 0.0816327
13 -0.285714 0.0408163
13 -0.285714 0
13 -0.285714 -0.0408163
13 -0.285714 -0.0816326
13 -0.285714 -0.122449
13 -0.285714 -0.163265
13 -0.285714 -0.204082
13 -0.285714 -0.244898
13 -0.285714 -0.285714
13 -0.285714 -0.326531
13 -0.285714 -0.367347
13 -0.285714 -0.408163
13 -0.285714 -0.44898
13 -0.285714 -0.489796
13 -0.285714 -0.530612
13 -0.285714 -0.571429
13 -0.285714 -0.612245
13 -0.285714 -0.653061
13 -0.285714 -0.693878
13 -0.285714 -0.734694
13 -0.285714 -0.77551
13 -0.285714 -0.816326
13 -0.285714 -0.857143
13 -0.285714 -0.897959
13 -0.285714 -0.938776
13 -0.285714 -0.979592
13 -0.285714 -1.02041
13 -0.326531 0.979592
13 -0.326531 0.938776
13 -0.326531 0.897959
13 -0.326531 0.857143
13 -0.326531 0.816326
13 -0.326531 0.77551
13 -0.326531 0.734694
13 -0.326531 0.693878
13 -0.326531 0.653061
13 -0.326531 0.612245
13 -0.326531 0.571429
13 -0.326531 0.530612
13 -0.326531 0.489796
13 -0.326531 0.44898
13 -0.326531 0.408163
13 -0.326531 0.367347
13 -0.326531 0.326531
13 -0.326531 0.285714
13 -0.326531 0.244898
13 -0.326531 0.204082
13 -0.326531 0.163265
13 -0.326531 0.122449
13 -0.326531 0.0816327
13 -0.326531 0.0408163
13 -0.326531 0
13 -0.326531 -0.0408163
13 -0.326531 -0.0816326
13 -0.326531 -0.122449
13 -0.326531 -0.163265
13 -0.326531 -0.204082
13 -0.326531 -0.244898
13 -0.326531 -0.285714
13 -0.326531 -0.326531
13 -0.326531 -0.367347
13 -0.326531 -0.408163
13 -0.326531 -0.44898
13 -0.326531 -0.489796
13 -0.326531 -0.530612
13 -0.326531 -0.571429
13 -0.326531 -0.612245
13 -0.326531 -0.653061
13 -0.326531 -0.693878
13 -0.326531 -0.734694
13 -0.326531 -0.77551
13 -0.326531 -0.816326
13 -0.326531 -0.857143
13 -0.326531 -0.897959
13 -0.326531 -0.938776
13 -0.326531 -0.979592
13 -0.326531 -1.02041
13 -0.367347 0.979592
13 -0.367347 0.938776
13 -0.367347 0.897959
13 -0.367347 0.857143
13 -0.367347 0.816326
13 -0.367347 0.77551
13 -0.367347 0.734694
13 -0.367347 0.693878
13 -0.367347 0.653061
13 -0.367347 0.612245
13 -0.367347 0.571429
13 -0.367347 0.530612
13 -0.367347 0.489796
13 -0.367347 0.44898
13 -0.367347 0.408163
13 -0.367347 0.367347
13 -0.367347 0.326531
13 -0.367347 0.285714
13 -0.367347 0.244898
13 -0.367347 0.204082
13 -0.367347 0.163265
13 -0.367347 0.122449
13 -0.367347 0.0816327
13 -0.367347 0.0408163
13 -0.367347 0
13 -0.367347 -0.0408163
13 -0.367347 -0.0816326
13 -0.367347 -0.122449
13 -0.367347 -0.163265
13 -0.367347 -0.204082
13 -0.367347 -0.244898
13 -0.367347 -0.285714
13 -0.367347 -0.326531
13 -0.367347 -0.367347
13 -0.367347 -0.408163
13 -0.367347 -0.44898
13 -0.367347 -0.489796
13 -0.367347 -0.530612
13 -0.367347 -0.571429
13 -0.367347 -0.612245
13 -0.367347 -0.653061
13 -0.367347 -0.693878
13 -0.367347 -0.734694
13 -0.367347 -0.77551
13 -0.367347 -0.816326
13 -0.367347 -0.857143
13 -0.367347 -0.897959
13 -0.367347 -0.938776
13 -0.367347 -0.979592
13 -0.367347 -1.02041
13 -0.408163 0.979592
13 -0.408163 0.938776
13 -0.408163 0.897959
13 -0.408163 0.857143
13 -0.408163 0.816326
13 -0.408163 0.77551
13 -0.408163 0.734694
13 -0.408163 0.693878
13 -0.408163 0.653061
13 -0.408163 0.612245
13 -0.408163 0.571429
13 -0.408163 0.530612
13 -0.408163 0.489796
13 -0.408163 0.44898
13 -0.408163 0.408163
13 -0.408163 0.367347
13 -0.408163 0.326531
13 -0.408163 0.285714
13 -0.408163 0.244898
13 -0.408163 0.204082
13 -0.408163 0.163265
13 -0.408163 0.122449
13 -0.408163 0.0816327
13 -0.408163 0.0408163
13 -0.408163 0
13 -0.408163 -0.0408163
13 -0.408163 -0.0816326
13 -0.408163 -0.122449
13 -0.408163 -0.163265
13 -0.408163 -0.204082
13 -0.408163 -0.244898
13 -0.408163 -0.285714
13 -0.408163 -0.326531
13 -0.408163 -0.367347
13 -0.408163 -0.408163
13 -0.408163 -0.44898
13 -0.408163 -0.489796
13 -0.408163 -0.530612
13 -0.408163 -0.571429
13 -0.408163 -0.612245
13 -0.408163 -0.653061
13 -0.408163 -0.693878
13 -0.408163 -0.734694
13 -0.408163 -0.77551
13 -0.408163 -0.816326
13 -0.408163 -0.857143
13 -0.408163 -0.897959
13 -0.408163 -0.938776
13 -0.408163 -0.979592
13 -0.408163 -1.02041
13 -0.44898 0.979592
13 -0.44898 0.938776
13 -0.44898 0.897959
13 -0.44898 0.857143
13 -0.44898 0.816326
13 -0.44898 0.77551
13 -0.44898 0.734694
13 -0.44898 0.693878
13 -0.44898 0.653061
13 -0.44898 0.612245
13 -0.44898 0.571429
13 -0.44898 0.530612
13 -0.44898 0.489796
13 -0.44898 0.44898
13 -0.44898 0.408163
13 -0.44898 0.367347
13 -0.44898 0.326531
13 -0.44898 0.285714
13 -0.44898 0.244898
13 -0.44898 0.204082
13 -0.44898 0.163265
13 -0.44898 0.122449
13 -0.44898 0.0816327
13 -0.44898 0.0408163
13 -0.44898 0
13 -0.44898 -0.0408163
13 -0.44898 -0.0816326
13 -0.44898 -0.122449
13 -0.44898 -0.163265
13 -0.44898 -0.204082
13 -0.44898 -0.244898
13 -0.44898 -0.285714
13 -0.44898 -0.326531
13 -0.44898 -0.367347
13 -0.44898 -0.408163
13 -0.44898 -0.44898
13 -0.44898 -0.489796
13 -0.44898 -0.530612
13 -0.44898 -0.571429
13 -0.44898 -0.612245
13 -0.44898 -0.653061
13 -0.44898 -0.693878
13 -0.44898 -0.734694
13 -0.44898 -0.77551
13 -0.44898 -0.816326
13 -0.44898 -0.857143
13 -0.44898 -0.897959
13 -0.44898 -0.938776
13 -0.44898 -0.979592
13 -0.44898 -1.02041
13 -0.489796 0.979592
13 -0.489796 0.938776
13 -0.489796 0.897959
13 -0.489796 0.857143
13 -0.489796 0.816326
13 -0.489796 0.77551
13 -0.489796 0.734694
13 -0.489796 0.693878
13 -0.489796 0.653061
13 -0.489796 0.612245
13 -0.489796 0.571429
13 -0.489796 0.530612
13 -0.489796 0.489796
13 -0.489796 0.44898
13 -0.489796 0.408163
13 -0.489796 0.367347
13 -0.489796 0.326531
13 -0.489796 0.285714
13 -0.489796 0.244898
13 -0.489796 0.204082
13 -0.489796 0.163265
13 -0.489796 0.122449
13 -0.489796 0.0816327
13 -0.489796 0.0408163
13 -0.489796 0
13 -0.489796 -0.0408163
13 -0.489796 -0.0816326
13 -0.489796 -0.122449
13 -0.489796 -0.163265
13 -0.489796 -0.204082
13 -0.489796 -0.244898
13 -0.489796 -0.285714
13 -0.489796 -0.326531
13 -0.489796 -0.367347
13 -0.489796 -0.408163
13 -0.489796 -0.44898
13 -0.489796 -0.489796
13 -0.489796 -0.530612
13 -0.489796 -0.571429
13 -0.489796 -0.612245
13 -0.489796 -0.653061
13 -0.489796 -0.693878
13 -0.489796 -0.734694
13 -0.489796 -0.77551
13 -0.489796 -0.816326
13 -0.489796 -0.857143
13 -0.489796 -0.897959
13 -0.489796 -0.938776
13 -0.489796 -0.979592
13 -0.489796 -1.02041
13 -0.530612 0.979592
13 -0.530612 0.938776
13 -0.530612 0.897959
13 -0.530612 0.857143
13 -0.530612 0.816326
13 -0.530612 0.77551
13 -0.530612 0.734694
13 -0.530612 0.693878
13 -0.530612 0.653061
13 -0.530612 0.612245
13 -0.530612 0.571429
13 -0.530612 0.530612
13 -0.530612 0.489796
13 -0.530612 0.44898
13 -0.530612 0.408163
13 -0.530612 0.367347
13 -0.530612 0.326531
13 -0.530612 0.285714
13 -0.530612 0.244898
13 -0.530612 0.204082
13 -0.530612 0.163265
13 -0.530612 0.122449
13 -0.530612 0.0816327
13 -0.530612 0.0408163
13 -0.530612 0
13 -0.530612 -0.0408163
13 -0.530612 -0.0816326
13 -0.530612 -0.122449
13 -0.530612 -0.163265
13 -0.530612 -0.204082
13 -0.530612 -0.244898
13 -0.530612 -0.285714
13 -0.530612 -0.326531
13 -0.530612 -0.367347
13 -0.530612 -0.408163
13 -0.530612 -0.44898
13 -0.530612 -0.489796
13 -0.530612 -0.530612
13 -0.530612 -0.571429
13 -0.530612 -0.612245
13 -0.530612 -0.653061
13 -0.530612 -0.693878
13 -0.530612 -0.734694
13 -0.530612 -0.77551
13 -0.530612 -0.816326
13 -0.530612 -0.857143
13 -0.530612 -0.897959
13 -0.530612 -0.938776
13 -0.530612 -0.979592
13 -0.530612 -1.02041
13 -0.571429 0.979592
13 -0.571429 0.938776
13 -0.571429 0.897959
13 -0.571429 0.857143
13 -0.571429 0.816326
13 -0.571429 0.77551
13 -0.571429 0.734694
13 -0.571429 0.693878
13 -0.571429 0.653061
13 -0.571429 0.612245
13 -0.571429 0.571429
13 -0.571429 0.530612
13 -0.571429 0.489796
13 -0.571429 0.44898
13 -0.571429 0.408163
13 -0.571429 0.367347
13 -0.571429 0.326531
13 -0.571429 0.285714
13 -0.571429 0.244898
13 -0.571429 0.204082
13 -0.571429 0.163265
13 -0.571429 0.122449
13 -0.571429 0.0816327
13 -0.571429 0.0408163
13 -0.571429 0
13 -0.571429 -0.0408163
13 -0.571429 -0.0816326
13 -0.571429 -0.122449
13 -0.571429 -0.163265
13 -0.571429 -0.204082
13 -0.571429 -0.244898
13 -0.571429 -0.285714
13 -0.571429 -0.326531
13 -0.571429 -0.367347
13 -0.571429 -0.408163
13 -0.571429 -0.44898
13 -0.571429 -0.489796
13 -0.571429 -0.530612
13 -0.571429 -0.571429
13 -0.571429 -0.612245
13 -0.571429 -0.653061
13 -0.571429 -0.693878
13 -0.571429 -0.734694
13 -0.571429 -0.77551
13 -0.571429 -0.816326
13 -0.571429 -0.857143
13 -0.571429 -0.897959
13 -0.571429 -0.938776
13 -0.571429 -0.979592
13 -0.571429 -1.02041
13 -0.612245 0.979592
13 -0.612245 0.938776
13 -0.612245 0.897959
13 -0.612245 0.857143
13 -0.612245 0.816326
13 -0.612245 0.77551
13 -0.612245 0.734694
13 -0.612245 0.693878
13 -0.612245 0.653061
13 -0.612245 0.612245
13 -0.612245 0.571429
13 -0.612245 0.530612
13 -0.612245 0.489796
13 -0.612245 0.44898
13 -0.612245 0.408163
13 -0.612245 0.367347
13 -0.612245 0.326531
13 -0.612245 0.285714
13 -0.612245 0.244898
13 -0.612245 0.204082
13 -0.612245 0.163265
13 -0.612245 0.122449
13 -0.612245 0.0816327
13 -0.612245 0.0408163
13 -0.612245 0
13 -0.612245 -0.0408163
13 -0.612245 -0.0816326
13 -0.612245 -0.122449
13 -0.612245 -0.163265
13 -0.612245 -0.204082
13 -0.612245 -0.244898
13 -0.612245 -0.285714
13 -0.612245 -0.326531
13 -0.612245 -0.367347
13 -0.612245 -0.408163
13 -0.612245 -0.44898
13 -0.612245 -0.489796
13 -0.612245 -0.530612
13 -0.612245 -0.571429
13 -0.612245 -0.612245
13 -0.612245 -0.653061
13 -0.612245 -0.693878
13 -0.612245 -0.734694
13 -0.612245 -0.77551
13 -0.612245 -0.816326
13 -0.612245 -0.857143
13 -0.612245 -0.897959
13 -0.612245 -0.938776
13 -0.612245 -0.979592
13 -0.612245 -1.02041
13 -0.653061 0.979592
13 -0.653061 0.938776
13 -0.653061 0.897959
13 -0.653061 0.857143
13 -0.653061 0.816326
13 -0.653061 0.77551
13 -0.653061 0.734694
13 -0.653061 0.693878
13 -0.653061 0.653061
13 -0.653061 0.612245
13 -0.653061 0.571429
13 -0.653061 0.530612
13 -0.653061 0.489796
13 -0.653061 0.44898
13 -0.653061 0.408163
13 -0.653061 0.367347
13 -0.653061 0.326531
13 -0.653061 0.285714
13 -0.653061 0.244898
13 -0.653061 0.204082
13 -0.653061 0.163265
13 -0.653061 0.122449
13 -0.653061 0.0816327
13 -0.653061 0.0408163
13 -0.653061 0
13 -0.653061 -0.0408163
13 -0.653061 -0.0816326
13 -0.653061 -0.122449
13 -0.653061 -0.163265
13 -0.653061 -0.204082
13 -0.653061 -0.244898
13 -0.653061 -0.285714
13 -0.653061 -0.326531
13 -0.653061 -0.367347
13 -0.653061 -0.408163
13 -0.653061 -0.44898
13 -0.653061 -0.489796
13 -0.653061 -0.530612
13 -0.653061 -0.571429
13 -0.653061 -0.612245
13 -0.653061 -0.653061
13 -0.653061 -0.693878
13 -0.653061 -0.734694
13 -0.653061 -0.77551
13 -0.653061 -0.816326
13 -0.653061 -0.857143
13 -0.653061 -0.897959
13 -0.653061 -0.938776
13 -0.653061 -0.979592
13 -0.653061 -1.02041
13 -0.693878 0.979592
13 -0.693878 0.938776
13 -0.693878 0.897959
13 -0.693878 0.857143
13 -0.693878 0.816326
13 -0.693878 0.77551
13 -0.693878 0.734694
13 -0.693878 0.693878
13 -0.693878 0.653061
13 -0.693878 0.612245
13 -0.693878 0.571429
13 -0.693878 0.530612
13 -0.693878 0.489796
13 -0.693878 0.44898
13 -0.693878 0.408163
13 -0.693878 0.367347
13 -0.693878 0.326531
13 -0.693878 0.285714
13 -0.693878 0.244898
13 -0.693878 0.204082
13 -0.693878 0.163265
13 -0.693878 0.122449
13 -0.693878 0.0816327
13 -0.693878 0.0408163
13 -0.693878 0
13 -0.693878 -0.0408163
13 -0.693878 -0.0816326
13 -0.693878 -0.122449
13 -0.693878 -0.163265
13 -0.693878 -0.204082
13 -0.693878 -0.244898
13 -0.693878 -0.285714
13 -0.693878 -0.326531
13 -0.693878 -0.367347
13 -0.693878 -0.408163
13 -0.693878 -0.44898
13 -0.693878 -0.489796
13 -0.693878 -0.530612
13 -0.693878 -0.571429
13 -0.693878 -0.612245
13 -0.693878 -0.653061
13 -0.693878 -0.693878
13 -0.693878 -0.734694
13 -0.693878 -0.77551
13 -0.693878 -0.816326
13 -0.693878 -0.857143
13 -0.693878 -0.897959
13 -0.693878 -0.938776
13 -0.693878 -0.979592
13 -0.693878 -1.02041
13 -0.734694 0.979592
13 -0.734694 0.938776
13 -0.734694 0.897959
13 -0.734694 0.857143
13 -0.734694 0.816326
13 -0.734694 0.77551
13 -0.734694 0.734694
13 -0.734694 0.693878
13 -0.734694 0.653061
13 -0.734694 0.612245
13 -0.734694 0.571429
13 -0.734694 0.530612
13 -0.734694 0.489796
13 -0.734694 0.44898
13 -0.734694 0.408163
13 -0.734694 0.367347
13 -0.734694 0.326531
13 -0.734694 0.285714
13 -0.734694 0.244898
13 -0.734694 0.204082
13 -0.734694 0.163265
13 -0.734694 0.122449
13 -0.734694 0.0816327
13 -0.734694 0.0408163
13 -0.734694 0
13 -0.734694 -0.0408163
13 -0.734694 -0.0816326
13 -0.734694 -0.122449
13 -0.734694 -0.163265
13 -0.734694 -0.204082
13 -0.734694 -0.244898
13 -0.734694 -0.285714
13 -0.734694 -0.326531
13 -0.734694 -0.367347
13 -0.734694 -0.408163
13 -0.734694 -0.44898
13 -0.734694 -0.489796
13 -0.734694 -0.530612
13 -0.734694 -0.571429
13 -0.734694 -0.612245
13 -0.734694 -0.653061
13 -0.734694 -0.693878
13 -0.734694 -0.734694
13 -0.734694 -0.77551
13 -0.734694 -0.816326
13 -0.734694 -0.857143
13 -0.734694 -0.897959
13 -0.734694 -0.938776
13 -0.734694 -0.979592
13 -0.734694 -1.02041
13 -0.77551 0.979592
13 -0.77551 0.938776
13 -0.77551 0.897959
13 -0.77551 0.857143
13 -0.77551 0.816326
13 -0.77551 0.77551
13 -0.77551 0.734694
13 -0.77551 0.693878
13 -0.77551 0.653061
13 -0.77551 0.612245
13 -0.77551 0.571429
13 -0.77551 0.530612
13 -0.77551 0.489796
13 -0.77551 0.44898
13 -0.77551 0.408163
13 -0.77551 0.367347
13 -0.77551 0.326531
13 -0.77551 0.285714
13 -0.77551 0.244898
13 -0.77551 0.204082
13 -0.77551 0.163265
13 -0.77551 0.122449
13 -0.77551 0.0816327
13 -0.77551 0.0408163
13 -0.77551 0
13 -0.77551 -0.0408163
13 -0.77551 -0.0816326
13 -0.77551 -0.122449
13 -0.77551 -0.163265
13 -0.77551 -0.204082
13 -0.77551 -0.244898
13 -0.77551 -0.285714
13 -0.77551 -0.326531
13 -0.77551 -0.367347
13 -0.77551 -0.408163
13 -0.77551 -0.44898
13 -0.77551 -0.489796
13 -0.77551 -0.530612
13 -0.77551 -0.571429
13 -0.77551 -0.612245
13 -0.77551 -0.653061
13 -0.77551 -0.693878
13 -0.77551 -0.734694
13 -0.77551 -0.77551
13 -0.77551 -0.816326
13 -0.77551 -0.857143
13 -0.77551 -0.897959
13 -0.77551 -0.938776
13 -0.77551 -0.979592
13 -0.77551 -1.02041
13 -0.816326 0.979592
13 -0.816326 0.938776
13 -0.816326 0.897959
13 -0.816326 0.857143
13 -0.816326 0.816326
13 -0.816326 0.77551
13 -0.816326 0.734694
13 -0.816326 0.693878
13 -0.816326 0.653061
13 -0.816326 0.612245
13 -0.816326 0.571429
13 -0.816326 0.530612
13 -0.816326 0.489796
13 -0.816326 0.44898
13 -0.816326 0.408163
13 -0.816326 0.367347
13 -0.816326 0.326531
13 -0.816326 0.285714
13 -0.816326 0.244898
13 -0.816326 0.204082
13 -0.816326 0.163265
13 -0.816326 0.122449
13 -0.816326 0.0816327
13 -0.816326 0.0408163
13 -0.816326 0
13 -0.816326 -0.0408163
13 -0.816326 -0.0816326
13 -0.816326 -0.122449
13 -0.816326 -0.163265
13 -0.816326 -0.204082
13 -0.816326 -0.244898
13 -0.816326 -0.285714
13 -0.816326 -0.326531
13 -0.816326 -0.367347
13 -0.816326 -0.408163
13 -0.816326 -0.44898
13 -0.816326 -0.489796
13 -0.816326 -0.530612
13 -0.816326 -0.571429
13 -0.816326 -0.612245
13 -0.816326 -0.653061
13 -0.816326 -0.693878
13 -0.816326 -0.734694
13 -0.816326 -0.77551
13 -0.816326 -0.816326
13 -0.816326 -0.857143
13 -0.816326 -0.897959
13 -0.816326 -0.938776
13 -0.816326 -0.979592
13 -0.816326 -1.02041
13 -0.857143 0.979592
13 -0.857143 0.938776
13 -0.857143 0.897959
13 -0.857143 0.857143
13 -0.857143 0.816326
13 -0.857143 0.77551
13 -0.857143 0.734694
13 -0.857143 0.693878
13 -0.857143 0.653061
13 -0.857143 0.612245
13 -0.857143 0.571429
13 -0.857143 0.530612
13 -0.857143 0.489796
13 -0.857143 0.44898
13 -0.857143 0.408163
13 -0.857143 0.367347
13 -0.857143 0.326531
13 -0.857143 0.285714
13 -0.857143 0.244898
13 -0.857143 0.204082
13 -0.857143 0.163265
13 -0.857143 0.122449
13 -0.857143 0.0816327
13 -0.857143 0.0408163
13 -0.857143 0
13 -0.857143 -0.0408163
13 -0.857143 -0.0816326
13 -0.857143 -0.122449
13 -0.857143 -0.163265
13 -0.857143 -0.204082
13 -0.857143 -0.244898
13 -0.857143 -0.285714
13 -0.857143 -0.326531
13 -0.857143 -0.367347
13 -0.857143 -0.408163
13 -0.857143 -0.44898
13 -0.857143 -0.489796
13 -0.857143 -0.530612
13 -0.857143 -0.571429
13 -0.857143 -0.612245
13 -0.857143 -0.653061
13 -0.857143 -0.693878
13 -0.857143 -0.734694
13 -0.857143 -0.77551
13 -0.857143 -0.816326
13 -0.857143 -0.857143
13 -0.857143 -0.897959
13 -0.857143 -0.938776
13 -0.857143 -0.979592
13 -0.857143 -1.02041
13 -0.897959 0.979592
13 -0.897959 0.938776
13 -0.897959 0.897959
13 -0.897959 0.857143
13 -0.897959 0.816326
13 -0.897959 0.77551
13 -0.897959 0.734694
13 -0.897959 0.693878
13 -0.897959 0.653061
13 -0.897959 0.612245
13 -0.897959 0.571429
13 -0.897959 0.530612
13 -0.897959 0.489796
13 -0.897959 0.44898
13 -0.897959 0.408163
13 -0.897959 0.367347
13 -0.897959 0.326531
13 -0.897959 0.285714
13 -0.897959 0.244898
13 -0.897959 0.204082
13 -0.897959 0.163265
13 -0.897959 0.122449
13 -0.897959 0.0816327
13 -0.897959 0.0408163
13 -0.897959 0
13 -0.897959 -0.0408163
13 -0.897959 -0.0816326
13 -0.897959 -0.122449
13 -0.897959 -0.163265
13 -0.897959 -0.204082
13 -0.897959 -0.244898
13 -0.897959 -0.285714
13 -0.897959 -0.326531
13 -0.897959 -0.367347
13 -0.897959 -0.408163
13 -0.897959 -0.44898
13 -0.897959 -0.489796
13 -0.897959 -0.530612
13 -0.897959 -0.571429
13 -0.897959 -0.612245
13 -0.897959 -0.653061
13 -0.897959 -0.693878
13 -0.897959 -0.734694
13 -0.897959 -0.77551
13 -0.897959 -0.816326
13 -0.897959 -0.857143
13 -0.897959 -0.897959
13 -0.897959 -0.938776
13 -0.897959 -0.979592
13 -0.897959 -1.02041
13 -0.938776 0.979592
13 -0.938776 0.938776
13 -0.938776 0.897959
13 -0.938776 0.857143
13 -0.938776 0.816326
13 -0.938776 0.77551
13 -0.938776 0.734694
13 -0.938776 0.693878
13 -0.938776 0.653061
13 -0.938776 0.612245
13 -0.938776 0.571429
13 -0.938776 0.530612
13 -0.938776 0.489796
13 -0.938776 0.44898
13 -0.938776 0.408163
13 -0.938776 0.367347
13 -0.938776 0.326531
13 -0.938776 0.285714
13 -0.938776 0.244898
13 -0.938776 0.204082
13 -0.938776 0.163265
13 -0.938776 0.122449
13 -0.938776 0.0816327
13 -0.938776 0.0408163
13 -0.938776 0
13 -0.938776 -0.0408163
13 -0.938776 -0.0816326
13 -0.938776 -0.122449
13 -0.938776 -0.163265
13 -0.938776 -0.204082
13 -0.938776 -0.244898
13 -0.938776 -0.285714
13 -0.938776 -0.326531
13 -0.938776 -0.367347
13 -0.938776 -0.408163
13 -0.938776 -0.44898
13 -0.938776 -0.489796
13 -0.938776 -0.530612
13 -0.938776 -0.571429
13 -0.938776 -0.612245
13 -0.938776 -0.653061
13 -0.938776 -0.693878
13 -0.938776 -0.734694
13 -0.938776 -0.77551
13 -0.938776 -0.816326
13 -0.938776 -0.857143
13 -0.938776 -0.897959
13 -0.938776 -0.938776
13 -0.938776 -0.979592
13 -0.938776 -1.02041
13 -0.979592 0.979592
13 -0.979592 0.938776
13 -0.979592 0.897959
13 -0.979592 0.857143
13 -0.979592 0.816326
13 -0.979592 0.77551
13 -0.979592 0.734694
13 -0.979592 0.693878
13 -0.979592 0.653061
13 -0.979592 0.612245
13 -0.979592 0.571429
13 -0.979592 0.530612
13 -0.979592 0.489796
13 -0.979592 0.44898
13 -0.979592 0.408163
13 -0.979592 0.367347
13 -0.979592 0.326531
13 -0.979592 0.285714
13 -0.979592 0.244898
13 -0.979592 0.204082
13 -0.979592 0.163265
13 -0.979592 0.122449
13 -0.979592 0.0816327
13 -0.979592 0.0408163
13 -0.979592 0
13 -0.979592 -0.0408163
13 -0.979592 -0.0816326
13 -0.979592 -0.122449
13 -0.979592 -0.163265
13 -0.979592 -0.204082
13 -0.979592 -0.244898
13 -0.979592 -0.285714
13 -0.979592 -0.326531
13 -0.979592 -0.367347
13 -0.979592 -0.408163
13 -0.979592 -0.44898
13 -0.979592 -0.489796
13 -0.979592 -0.530612
13 -0.979592 -0.571429
13 -0.979592 -0.612245
13 -0.979592 -0.653061
13 -0.979592 -0.693878
13 -0.979592 -0.734694
13 -0.979592 -0.77551
13 -0.979592 -0.816326
13 -0.979592 -0.857143
13 -0.979592 -0.897959
13 -0.979592 -0.938776
13 -0.979592 -0.979592
13 -0.979592 -1.02041
13 -1.02041 0.979592
13 -1.02041 0.938776
13 -1.02041 0.897959
13 -1.02041 0.857143
13 -1.02041 0.816326
13 -1.02041 0.77551
13 -1.02041 0.734694
13 -1.02041 0.693878
13 -1.02041 0.653061
13 -1.02041 0.612245
13 -1.02041 0.571429
13 -1.02041 0.530612
13 -1.02041 0.489796
13 -1.02041 0.44898
13 -1.02041 0.408163
13 -1.02041 0.367347
13 -1.02041 0.326531
13 -1.02041 0.285714
13 -1.02041 0.244898
13 -1.02041 0.204082
13 -1.02041 0.163265
13 -1.02041 0.122449
13 -1.02041 0.0816327
13 -1.02041 0.0408163
13 -1.02041 0
13 -1.02041 -0.0408163
13 -1.02041 -0.0816326
13 -1.02041 -0.122449
13 -1.02041 -0.163265
13 -1.02041 -0.204082
13 -1.02041 -0.244898
13 -1.02041 -0.285714
13 -1.02041 -0.326531
13 -1.02041 -0.367347
13 -1.02041 -0.408163
13 -1.02041 -0.44898
13 -1.02041 -0.489796
13 -1.02041 -0.530612
13 -1.02041 -0.571429
13 -1.02041 -0.612245
13 -1.02041 -0.653061
13 -1.02041 -0.693878
13 -1.02041 -0.734694
13 -1.02041 -0.77551
13 -1.02041 -0.816326
13 -1.02041 -0.857143
13 -1.02041 -0.897959
13 -1.02041 -0.938776
13 -1.02041 -0.979592
13 -1.02041 -1.02041
