#
#
#

mtllib cube.mtl


#
# back  cube 网格
#
g back  cube 网格


#
# back  cube 网格_white
#
usemtl back  cube 网格_white

v 0.882425 1.191667 -7.977023
v 0.882425 -0.808333 -7.977023
v -1.117575 -0.808333 -7.977023
v -1.117575 1.191667 -7.977023
vn 0.000000 0.000000 -1.000000
f 1//1 2//1 3//1 4//1


#
# bottom cube 网格
#
g bottom cube 网格


#
# bottom cube 网格_white
#
usemtl bottom cube 网格_white

v -1.117575 -0.808333 -5.977023
v -1.117575 -0.808333 -7.977023
v 0.882425 -0.808333 -7.977023
v 0.882425 -0.808333 -5.977023
vn 0.000000 -1.000000 0.000000
f 5//2 6//2 7//2 8//2


#
# front cube 网格
#
g front cube 网格


#
# front cube 网格_white
#
usemtl front cube 网格_white

v -1.117575 1.191667 -5.977023
v -1.117575 -0.808333 -5.977023
v 0.882425 -0.808333 -5.977023
v 0.882425 1.191667 -5.977023
vn 0.000000 0.000000 1.000000
f 9//3 10//3 11//3 12//3


#
# left cube 网格
#
g left cube 网格


#
# left cube 网格_green
#
usemtl left cube 网格_green

v -1.117575 1.191667 -7.977023
v -1.117575 -0.808333 -7.977023
v -1.117575 -0.808333 -5.977023
v -1.117575 1.191667 -5.977023
vn -1.000000 0.000000 0.000000
f 13//4 14//4 15//4 16//4


#
# right cube 网格
#
g right cube 网格


#
# right cube 网格_red
#
usemtl right cube 网格_red

v 0.882425 1.191667 -5.977023
v 0.882425 -0.808333 -5.977023
v 0.882425 -0.808333 -7.977023
v 0.882425 1.191667 -7.977023
vn 1.000000 0.000000 0.000000
f 17//5 18//5 19//5 20//5


#
# top cube 网格
#
g top cube 网格


#
# top cube 网格_white
#
usemtl top cube 网格_white

v -1.117575 1.191667 -7.977023
v -1.117575 1.191667 -5.977023
v 0.882425 1.191667 -5.977023
v 0.882425 1.191667 -7.977023
vn 0.000000 1.000000 0.000000
f 21//6 22//6 23//6 24//6
